<svg width="1280" height="720" xmlns="http://www.w3.org/2000/svg" xmlns:xlink="http://www.w3.org/1999/xlink" overflow="hidden"><g><rect x="0" y="0" width="1280" height="720" fill="#FFFFFF" fill-opacity="0"/><g><g><g><g><path d="M12.4225 65.0529C5.5669 65.0529 0 70.6132 0 77.4603L0 243.041 24.8296 243.041 24.8296 89.91 126.959 89.91 126.959 124.677C115.103 130.367 48.8811 162.118 48.8811 162.118 44.5813 164.193 41.8409 168.561 41.8409 173.34L41.8409 230.683C41.8409 237.539 47.3863 243.099 54.2327 243.099L151.693 243.099 151.693 218.245 66.6672 218.245 66.6672 181.156C78.5332 175.479 144.739 143.714 144.739 143.714 149.033 141.644 151.804 137.291 151.804 132.507L151.804 77.4603C151.804 70.6132 146.234 65.0529 139.357 65.0529L12.4225 65.0529Z" fill="#FFFFFF" transform="matrix(1 0 0 1.00043 265 76)"/><path d="M273.263 218.251 170.035 218.251 170.035 243.096 273.263 243.096 273.263 218.251Z" fill="#FFFFFF" transform="matrix(1 0 0 1.00043 265 76)"/><path d="M329.85 0 317.332 0 317.332 307.868 329.85 307.868 329.85 0Z" fill="#FFFFFF" transform="matrix(1 0 0 1.00043 265 76)"/><path d="M267.246 125.158C270.936 123.376 273.342 119.586 273.342 115.482L273.342 75.7762C273.342 69.8618 268.538 65.0593 262.62 65.0593L180.968 65.0593C175.035 65.0593 170.252 69.8592 170.252 75.7762L170.252 100.708 191.65 100.708 191.65 86.4841 251.926 86.4841 251.926 108.733 176.524 144.896C172.808 146.663 170.428 150.462 170.428 154.563L170.428 182.456C170.428 188.367 175.238 193.179 181.131 193.179L273.197 193.179 273.197 171.739 191.841 171.739 191.841 161.311 267.246 125.164 267.246 125.158Z" fill="#FFFFFF" transform="matrix(1 0 0 1.00043 265 76)"/><path d="M507.751 243.219 484.985 243.219 470.595 201.308 396.537 201.308 382.407 243.219 359.641 243.219 418.521 68.7647 448.878 68.7647 507.751 243.219ZM433.697 85.005 402.555 181.66 464.837 181.66 433.697 85.005Z" fill="#FFFFFF" transform="matrix(1 0 0 1.00043 265 76)"/><path d="M635.606 128.486 620.427 131.367C625.14 137.919 627.23 146.822 627.492 156.779L627.492 162.539C627.492 190.047 610.745 206.025 577.51 206.025 572.798 206.025 568.354 205.764 564.426 205.241 559.979 208.908 555.27 213.359 555.27 218.861 555.27 223.839 557.887 225.671 563.645 226.194 576.99 227.505 583.793 228.291 599.756 229.861 622.783 232.219 631.681 241.129 631.681 260.509 631.681 288.276 621.999 297.441 575.945 297.441 564.168 297.441 544.019 295.347 529.626 291.419L532.766 274.132C546.111 277.273 562.599 279.366 575.421 279.366 607.869 279.366 611.01 274.915 611.01 261.556 611.01 250.814 607.085 248.982 592.169 247.671 578.036 246.359 573.327 245.836 558.41 244.531 539.569 242.958 533.55 233.004 533.55 221.219 533.55 211.786 538.784 203.932 545.588 198.689 533.55 191.879 527.792 179.306 527.792 162.539L527.792 156.779C527.792 129.009 541.137 113.031 577.513 113.031 584.055 113.031 592.953 113.816 598.972 115.651L635.606 115.651 635.606 128.486ZM577.513 131.106C556.316 131.106 548.467 138.18 548.467 157.041L548.467 162.536C548.467 181.919 556.581 187.948 577.513 187.948 598.446 187.948 606.559 179.3 606.559 162.536L606.559 157.041C606.559 138.442 598.71 131.106 577.513 131.106Z" fill="#FFFFFF" transform="matrix(1 0 0 1.00043 265 76)"/><path d="M722.292 133.203C710.258 138.969 696.385 147.869 685.924 155.206L685.924 243.216 663.941 243.216 663.941 115.651 683.042 115.651 684.352 133.464C693.771 126.131 706.859 118.271 719.416 113.031L722.298 133.203 722.292 133.203Z" fill="#FFFFFF" transform="matrix(1 0 0 1.00043 265 76)"/><path d="M793.186 245.836C756.026 245.836 741.373 224.621 741.373 197.901L741.373 160.969C741.373 134.25 756.026 113.031 793.186 113.031 830.347 113.031 845 134.25 845 160.969L845 197.901C845 224.621 830.347 245.836 793.186 245.836ZM793.186 132.156C773.293 132.156 763.356 141.586 763.356 160.184L763.356 198.689C763.356 217.287 773.293 226.717 793.186 226.717 813.073 226.717 823.017 217.287 823.017 198.689L823.017 160.184C823.017 141.586 813.073 132.156 793.186 132.156Z" fill="#FFFFFF" transform="matrix(1 0 0 1.00043 265 76)"/></g></g></g></g></g></svg>