<?xml version="1.0" encoding="utf-8"?>
<!-- Generator: Adobe Illustrator 19.2.1, SVG Export Plug-In . SVG Version: 6.00 Build 0)  -->
<svg version="1.1" id="layer" xmlns="http://www.w3.org/2000/svg" xmlns:xlink="http://www.w3.org/1999/xlink" x="0px" y="0px"
	 viewBox="0 0 652 652" style="enable-background:new 0 0 652 652;" xml:space="preserve">
<style type="text/css">
	.st0{fill:#6E8291;}
	.st1{fill:#F15F24;}
</style>
<g id="Layer_3">
	<g>
		<path class="st0" d="M413.8,218.2c0.3-1.1,0.8-1.6,1.9-1.6c0.8,0,1.4,0.3,2.2,0.5c0.5,0.3,0.8,0.8,0.8,1.6c0,0.3,0,0.5-0.3,1.1
			c0,0.5-0.3,0.8-0.3,1.1L407.8,256c-0.3,1.4-1.4,1.9-3,1.9c-1.6,0-2.5-0.5-3-1.9l-9-30.2l-8.7,30.2c-0.3,1.4-1.4,1.9-3,1.9
			s-2.5-0.5-3-1.9l-10.3-35.1c0-0.3-0.3-0.8-0.3-1.1c0-0.5-0.3-0.8-0.3-1.1c0-0.8,0.3-1.4,0.8-1.6c0.5-0.3,1.4-0.5,2.2-0.5
			c1.1,0,1.6,0.5,1.9,1.6l8.7,31.9l9-31.3c0.3-0.5,0.5-1.1,0.8-1.4c0.5-0.3,1.1-0.5,1.9-0.5c1.6,0,2.5,0.5,2.7,1.9l9,31.3
			L413.8,218.2z"/>
		<path class="st0" d="M423.3,219.8c0-1.1,0.3-1.9,0.8-2.5c0.5-0.5,1.4-0.8,2.2-0.8s1.6,0.3,2.2,0.8c0.5,0.5,0.8,1.4,0.8,2.5
			s-0.3,1.9-0.8,2.5c-0.5,0.5-1.4,0.8-2.2,0.8s-1.6-0.3-2.2-0.8C423.6,221.4,423.3,220.6,423.3,219.8z M424.1,230.1
			c0-0.8,0.3-1.6,0.5-1.9c0.5-0.3,1.1-0.5,1.9-0.5c0.8,0,1.4,0.3,1.9,0.5c0.5,0.3,0.5,0.8,0.5,1.9v25.6c0,0.8-0.3,1.6-0.5,1.9
			c-0.5,0.3-1.1,0.5-1.9,0.5c-0.8,0-1.4-0.3-1.9-0.5c-0.5-0.3-0.5-0.8-0.5-1.9V230.1z"/>
		<path class="st0" d="M442.4,255.7c0,0.8-0.3,1.6-0.5,1.9c-0.5,0.3-1.1,0.5-1.9,0.5c-0.8,0-1.4-0.3-1.9-0.5
			c-0.5-0.3-0.5-0.8-0.5-1.9v-25.6c0-0.8,0.3-1.4,0.5-1.6c0.3-0.3,1.1-0.5,1.6-0.5c0.8,0,1.4,0.3,1.9,0.5s0.5,0.8,0.5,1.6v2.7
			c0.5-1.1,1.4-1.9,2.2-2.7s1.9-1.4,3-1.9c1.4-0.5,2.7-0.8,4.9-0.8c3,0,5.4,0.8,7.6,2.5c1.9,1.6,3,4.4,3,7.9V256
			c0,1.4-0.8,2.2-2.5,2.2s-2.5-0.8-2.5-2.2v-17.2c0-2.2-0.5-4.1-1.4-5.2c-1.1-1.1-2.7-1.9-5.2-1.9c-1.6,0-2.7,0.3-3.8,1.1
			c-1.1,0.8-1.9,1.6-2.7,2.7s-1.1,2.2-1.6,3.5c-0.3,1.4-0.5,2.7-0.5,4.1v12.5H442.4z"/>
		<path class="st0" d="M496.3,255.7c0,0.8-0.3,1.4-0.5,1.6c-0.3,0.3-1.1,0.5-1.6,0.5c-0.8,0-1.4-0.3-1.9-0.5
			c-0.5-0.3-0.5-0.8-0.5-1.6V253c-0.8,1.6-2.2,2.7-3.8,3.8c-1.6,1.1-3.8,1.6-6,1.6c-2.2,0-3.8-0.3-5.4-1.1c-1.6-0.8-3-1.9-4.1-3.3
			c-1.1-1.4-1.9-3-2.5-4.9c-0.5-1.9-0.8-4.1-0.8-6.3s0.3-4.4,0.8-6.3c0.5-1.9,1.4-3.5,2.5-4.9c1.1-1.4,2.5-2.5,4.1-3.3
			c1.6-0.8,3.5-1.1,5.4-1.1c1.1,0,2.5,0.3,3.3,0.5c1.1,0.3,1.9,0.8,2.7,1.1c0.8,0.5,1.4,1.1,2.2,1.6c0.5,0.5,1.1,1.1,1.4,1.9v-13.3
			c0-0.8,0.3-1.6,0.5-1.9c0.5-0.3,1.1-0.5,1.9-0.5c0.8,0,1.4,0.3,1.9,0.5c0.5,0.3,0.5,0.8,0.5,1.9V255.7z M474.2,242.9
			c0,3.3,0.8,6,2.2,8.2c1.4,1.9,3.5,3,6.3,3c1.4,0,2.7-0.3,3.8-0.8c1.1-0.5,1.9-1.4,2.7-2.5s1.4-2.2,1.6-3.5s0.5-3,0.5-4.6
			c0-3.5-0.8-6.3-2.5-8.2c-1.6-1.9-3.8-3-6.5-3c-1.4,0-2.7,0.3-3.8,0.8c-1.1,0.5-1.9,1.4-2.7,2.2c-0.8,1.1-1.4,2.2-1.6,3.5
			C474.2,239.7,474.2,241.3,474.2,242.9z"/>
		<path class="st0" d="M388.2,294.1c3.3,1.1,6,2.5,7.4,4.1c1.6,1.6,2.5,4.1,2.5,7.1c0,2.2-0.3,3.8-1.1,5.4c-0.8,1.4-1.9,2.7-3,3.8
			c-1.4,1.1-2.7,1.6-4.4,2.2s-3.3,0.5-5.2,0.5c-3,0-5.7-0.5-8.4-1.4c-2.7-0.8-4.9-2.2-6.8-4.1c-0.5-0.5-0.8-1.1-0.8-1.4
			s-0.3-0.8-0.3-1.1c0-0.5,0.3-1.1,0.8-1.6s1.1-0.8,1.9-0.8c0.3,0,0.5,0.3,0.8,0.3c0.3,0.3,0.5,0.5,0.8,0.5c1.9,1.9,3.8,3.3,5.4,3.8
			c1.9,0.8,3.8,1.1,6.3,1.1c2.5,0,4.6-0.5,6.3-1.6c1.6-1.1,2.5-2.7,2.5-5.2c0-1.9-0.5-3.5-1.6-4.6c-1.1-1.1-3-2.2-5.7-3l-5.2-1.4
			c-3.5-1.1-6.3-2.5-8.2-4.1c-1.9-1.6-2.7-4.1-2.7-7.1c0-1.9,0.5-3.5,1.4-4.9c0.8-1.4,1.9-2.5,3.3-3.5c1.4-0.8,2.7-1.6,4.4-1.9
			c1.6-0.5,3.3-0.5,4.9-0.5c2.7,0,5.2,0.5,7.6,1.4c2.5,0.8,4.4,2.5,6,4.4c0.3,0.5,0.5,0.8,0.5,1.1c0,0.3,0.3,0.5,0.3,0.8
			c0,0.5-0.3,1.1-0.8,1.6c-0.5,0.5-1.1,0.5-1.6,0.5c-0.3,0-0.8,0-1.1-0.3c-0.3-0.3-0.8-0.5-1.1-0.8c-1.4-1.6-3-2.7-4.6-3.5
			c-1.6-0.8-3.3-1.1-5.4-1.1c-1.1,0-2.2,0.3-3.3,0.5c-1.1,0.3-1.9,0.8-2.7,1.4c-0.8,0.5-1.4,1.4-1.9,2.2c-0.5,0.8-0.8,1.9-0.8,3
			c0,0.8,0,1.4,0.3,1.9s0.5,1.1,1.1,1.6s1.4,1.1,2.2,1.6s2.2,0.8,3.5,1.4L388.2,294.1z"/>
		<path class="st0" d="M402.9,301.5c0-2.5,0.3-4.6,1.1-6.5c0.8-1.9,1.6-3.5,3-4.9c1.4-1.4,2.7-2.5,4.6-3c1.6-0.8,3.8-1.1,6-1.1
			c2.2,0,4.1,0.3,5.7,1.1c1.6,0.8,3.3,1.6,4.6,3c1.4,1.4,2.2,3,3,4.9c0.8,1.9,1.1,4.1,1.1,6.5s-0.3,4.6-1.1,6.5
			c-0.8,1.9-1.6,3.5-3,4.9c-1.4,1.4-2.7,2.5-4.6,3c-1.6,0.8-3.8,1.1-5.7,1.1c-2.2,0-4.1-0.3-6-1.1c-1.6-0.8-3.3-1.6-4.6-3
			c-1.4-1.4-2.2-3-3-4.9C403.5,306.1,402.9,303.9,402.9,301.5z M408.4,301.5c0,3.5,0.8,6.3,2.5,8.4c1.6,1.9,3.8,3,6.8,3
			s5.2-1.1,6.8-3c1.6-1.9,2.5-4.9,2.5-8.4s-0.8-6.3-2.5-8.4c-1.6-1.9-3.8-3-6.8-3s-5.2,1.1-6.8,3
			C409.2,294.9,408.4,297.9,408.4,301.5z"/>
		<path class="st0" d="M438.3,277.5c0-0.8,0.3-1.6,0.5-1.9c0.5-0.3,1.1-0.5,1.9-0.5s1.4,0.3,1.9,0.5c0.5,0.3,0.5,0.8,0.5,1.9v36.8
			c0,0.8-0.3,1.6-0.5,1.9c-0.5,0.3-1.1,0.5-1.9,0.5s-1.4-0.3-1.9-0.5c-0.5-0.3-0.5-0.8-0.5-1.9V277.5z"/>
		<path class="st0" d="M471.2,288.7c0-0.8,0.3-1.6,0.5-1.9c0.5-0.3,1.1-0.5,1.9-0.5s1.4,0.3,1.9,0.5c0.5,0.3,0.5,0.8,0.5,1.9v25.6
			c0,0.8-0.3,1.4-0.5,1.6c-0.3,0.3-1.1,0.5-1.6,0.5c-0.8,0-1.4-0.3-1.9-0.5c-0.5-0.3-0.5-0.8-0.5-1.6v-2.7c-0.5,1.1-1.4,1.9-2.2,2.7
			c-0.8,0.8-1.9,1.4-3,1.9c-1.4,0.5-3,0.8-4.6,0.8c-1.6,0-3-0.3-4.1-0.5c-1.4-0.5-2.5-1.1-3.3-1.9c-0.8-0.8-1.6-1.9-2.2-3.3
			c-0.5-1.4-0.8-2.7-0.8-4.6v-18.2c0-1.4,0.8-2.2,2.5-2.2c1.6,0,2.5,0.8,2.5,2.2v16.9c0,2.2,0.5,4.1,1.4,5.2s2.7,1.9,5.2,1.9
			c1.6,0,2.7-0.3,3.8-1.1c1.1-0.8,1.9-1.6,2.7-2.7c0.8-1.1,1.1-2.5,1.6-3.8c0.3-1.4,0.5-2.7,0.5-4.1v-12H471.2z"/>
		<path class="st0" d="M484.9,280.8c0-0.8,0-1.4,0.3-1.6c0-0.3,0.5-0.5,0.8-0.8c0.8-0.5,1.4-0.5,2.2-0.5c1.1,0,1.6,0.5,1.6,1.6v7.6
			h5.4c0.8,0,1.4,0.3,1.6,0.5c0.3,0.3,0.5,0.8,0.5,1.6c0,0.5-0.3,1.1-0.5,1.6c-0.3,0.3-0.8,0.5-1.6,0.5h-5.4v17.4
			c0,1.6,0.3,3,0.8,3.5s1.4,0.8,2.7,0.8c0.5,0,0.8,0,1.1-0.3c0.3,0,0.5-0.3,0.8-0.3s0.5-0.3,0.8-0.3s0.5-0.3,0.8-0.3
			c0.5,0,1.1,0.3,1.4,0.8c0.5,0.5,0.5,1.1,0.5,1.6c0,0.8-0.5,1.6-1.9,2.2c-1.1,0.5-2.7,0.8-4.6,0.8c-2.7,0-4.6-0.5-6-1.9
			c-1.4-1.4-1.9-3.3-1.9-5.7v-29.1H484.9z"/>
		<path class="st0" d="M503.4,278.3c0-1.1,0.3-1.9,0.8-2.5s1.4-0.8,2.2-0.8c0.8,0,1.6,0.3,2.2,0.8c0.5,0.5,0.8,1.4,0.8,2.5
			s-0.3,1.9-0.8,2.5c-0.5,0.5-1.4,0.8-2.2,0.8c-0.8,0-1.6-0.3-2.2-0.8C503.6,280,503.4,279.1,503.4,278.3z M504.2,288.7
			c0-0.8,0.3-1.6,0.5-1.9c0.5-0.3,1.1-0.5,1.9-0.5s1.4,0.3,1.9,0.5c0.5,0.3,0.5,0.8,0.5,1.9v25.6c0,0.8-0.3,1.6-0.5,1.9
			c-0.5,0.3-1.1,0.5-1.9,0.5s-1.4-0.3-1.9-0.5c-0.5-0.3-0.5-0.8-0.5-1.9V288.7z"/>
		<path class="st0" d="M515.9,301.5c0-2.5,0.3-4.6,1.1-6.5c0.8-1.9,1.6-3.5,3-4.9c1.4-1.4,2.7-2.5,4.6-3c1.6-0.8,3.8-1.1,6-1.1
			c2.2,0,4.1,0.3,5.7,1.1s3.3,1.6,4.6,3c1.4,1.4,2.2,3,3,4.9c0.8,1.9,1.1,4.1,1.1,6.5s-0.3,4.6-1.1,6.5c-0.8,1.9-1.6,3.5-3,4.9
			c-1.4,1.4-2.7,2.5-4.6,3c-1.6,0.8-3.8,1.1-5.7,1.1c-2.2,0-4.1-0.3-6-1.1c-1.6-0.8-3.3-1.6-4.6-3c-1.4-1.4-2.2-3-3-4.9
			C516.2,306.1,515.9,303.9,515.9,301.5z M521.1,301.5c0,3.5,0.8,6.3,2.5,8.4c1.6,1.9,3.8,3,6.8,3c3,0,5.2-1.1,6.8-3
			c1.6-1.9,2.5-4.9,2.5-8.4s-0.8-6.3-2.5-8.4c-1.6-1.9-3.8-3-6.8-3c-3,0-5.2,1.1-6.8,3C521.9,294.9,521.1,297.9,521.1,301.5z"/>
		<path class="st0" d="M555.9,314.3c0,0.8-0.3,1.6-0.5,1.9c-0.5,0.3-1.1,0.5-1.9,0.5s-1.4-0.3-1.9-0.5c-0.5-0.3-0.5-0.8-0.5-1.9
			v-25.6c0-0.8,0.3-1.4,0.5-1.6c0.3-0.3,1.1-0.5,1.6-0.5c0.8,0,1.4,0.3,1.9,0.5c0.5,0.3,0.5,0.8,0.5,1.6v2.7
			c0.5-1.1,1.4-1.9,2.2-2.7c0.8-0.8,1.9-1.4,3-1.9c1.4-0.5,2.7-0.8,4.9-0.8c3,0,5.4,0.8,7.6,2.5c1.9,1.6,3,4.4,3,7.9v18.2
			c0,1.4-0.8,2.2-2.5,2.2c-1.6,0-2.5-0.8-2.5-2.2v-17.2c0-2.2-0.5-4.1-1.4-5.2c-1.1-1.1-2.7-1.9-5.2-1.9c-1.6,0-2.7,0.3-3.8,1.1
			c-1.1,0.8-1.9,1.6-2.7,2.7c-0.8,1.1-1.1,2.2-1.6,3.5c-0.3,1.4-0.5,2.7-0.5,4.1v12.5H555.9z"/>
		<path class="st0" d="M583.4,314.3c-0.5-0.3-0.8-0.8-0.8-1.1c-0.3-0.3-0.3-0.5-0.3-1.1s0.3-1.4,0.8-1.9c0.5-0.5,1.1-0.8,1.6-0.8
			c0.3,0,0.8,0,1.1,0.3c0.3,0.3,0.8,0.3,1.1,0.8c0.5,0.5,1.6,1.1,3,1.6c1.4,0.5,2.7,0.8,4.6,0.8c2.2,0,3.5-0.5,4.9-1.4
			c1.1-0.8,1.6-1.9,1.6-3.3c0-0.5,0-1.1-0.3-1.4c0-0.5-0.3-0.8-0.8-1.4c-0.5-0.5-1.1-0.8-1.9-1.1c-0.8-0.3-1.9-0.5-3.3-0.8l-3.5-0.5
			c-2.5-0.3-4.6-1.4-6.3-2.7c-1.6-1.4-2.5-3.3-2.5-6s1.1-4.9,3-6.5c2.2-1.6,4.9-2.2,8.4-2.2c1.6,0,3,0,4.1,0.3s2.2,0.5,3,0.8
			c0.8,0.3,1.4,0.5,1.9,1.1c0.5,0.3,0.8,0.5,1.1,0.8c0.8,0.5,1.1,1.4,1.1,1.9s-0.3,1.1-0.5,1.6s-0.8,0.8-1.6,0.8
			c-0.5,0-0.8,0-1.1-0.3c-0.3-0.3-0.8-0.5-1.4-0.8c-0.8-0.5-1.6-0.8-2.7-1.4c-1.1-0.5-2.5-0.8-4.1-0.8c-2.2,0-3.5,0.3-4.6,1.1
			c-1.1,0.8-1.4,1.9-1.4,3c0,0.5,0,1.1,0.3,1.4c0,0.5,0.3,0.8,0.8,1.4c0.3,0.5,0.8,0.8,1.6,1.1c0.8,0.3,1.6,0.5,3,0.8l3.5,0.5
			c3,0.5,5.2,1.4,6.8,2.7c1.6,1.4,2.2,3.5,2.2,6c0,2.7-1.1,5.2-3,6.8s-4.9,2.5-8.4,2.5c-1.4,0-2.7,0-4.1-0.3
			c-1.4-0.3-2.2-0.5-3.3-0.8c-0.8-0.3-1.6-0.5-2.2-0.8C584.2,314.8,583.7,314.5,583.4,314.3z"/>
	</g>
	<path class="st1" d="M157.9,394l-64-58.8c-0.5-0.5-1.4-1.1-2.2-1.6c-9-7.1-20.7-10.6-32.1-9c-23.4,3.5-38.9,22.1-38.9,44.1v37.8
		c0,9.8,7.6,18.2,17.2,18.5c10.1,0.3,18.2-7.9,18.2-17.7v-50.6c0-2.5,0.5-4.6,3.5-5.7c3-0.8,5.4,0.8,7.4,3.3
		c1.6,1.6,9.8,10.1,10.9,11.2l56.6,55c3.3,3,7.6,4.6,12,4.6c4.9,0,10.1-2.2,13.6-6.3C166.3,411.4,165,400.3,157.9,394z"/>
	<path class="st1" d="M157.9,247.3l-64,58.8c-0.5,0.5-1.4,1.1-2.2,1.6c-9,7.1-20.7,10.6-32.1,9c-23.4-3.5-38.9-22.1-38.9-44.1v-37.8
		c0-9.8,7.6-18.2,17.2-18.5c10.1-0.3,18.2,7.9,18.2,17.7v50.6c0,2.5,0.5,4.6,3.5,5.7c3,0.8,5.4-0.8,7.4-3.3
		c1.6-1.6,9.8-10.1,10.9-11.2l56.6-55c3.3-3,7.6-4.6,12-4.6c4.9,0,10.1,2.2,13.6,6.3C166.3,229.9,165,241,157.9,247.3z"/>
	<path class="st1" d="M331,394l-64-58.8c-0.5-0.5-1.4-1.1-2.2-1.6c-9-7.1-20.7-10.6-32.1-9c-23.4,3.5-38.9,22.1-38.9,44.1v37.8
		c0,9.8,7.6,18.2,17.2,18.5c10.1,0.3,18.2-7.9,18.2-17.7v-50.6c0-2.5,0.5-4.6,3.5-5.7c3-0.8,5.4,0.8,7.4,3.3
		c1.6,1.6,9.8,10.1,10.9,11.2l56.6,55c3.3,3,7.6,4.6,12,4.6c4.9,0,10.1-2.2,13.6-6.3C339.5,411.4,338.1,400.3,331,394z"/>
	<path class="st1" d="M331,247.3l-64,58.8c-0.5,0.5-1.4,1.1-2.2,1.6c-9,7.1-20.7,10.6-32.1,9c-23.4-3.5-38.9-22.1-38.9-44.1v-37.8
		c0-9.8,7.6-18.2,17.2-18.5c10.1-0.3,18.2,7.9,18.2,17.7v50.6c0,2.5,0.5,4.6,3.5,5.7c3,0.8,5.4-0.8,7.4-3.3
		c1.6-1.6,9.8-10.1,10.9-11.2l56.6-55c3.3-3,7.6-4.6,12-4.6c4.9,0,10.1,2.2,13.6,6.3C339.5,229.9,338.1,241,331,247.3z"/>
	<g>
		<path class="st0" d="M620.7,278.9c0,0.8-0.3,1.6-0.5,2.5c-0.3,0.8-0.8,1.6-1.4,2.2c-0.5,0.5-1.4,1.1-2.2,1.4
			c-0.8,0.3-1.6,0.5-2.7,0.5c-1.1,0-1.9-0.3-2.7-0.5c-0.8-0.3-1.6-0.8-2.2-1.4c-0.5-0.5-1.1-1.4-1.4-2.2c-0.3-0.8-0.5-1.6-0.5-2.5
			s0.3-1.6,0.5-2.5c0.3-0.8,0.8-1.6,1.4-2.2c0.5-0.5,1.4-1.1,2.2-1.4c0.8-0.3,1.6-0.5,2.7-0.5c1.1,0,1.9,0.3,2.7,0.5
			c0.8,0.3,1.6,0.8,2.2,1.4c0.5,0.5,1.1,1.4,1.4,2.2C620.4,277.2,620.7,277.8,620.7,278.9z M619.3,278.9c0-0.8-0.3-1.4-0.5-2.2
			c-0.3-0.5-0.8-1.4-1.1-1.6c-0.5-0.5-1.1-0.8-1.6-1.1s-1.4-0.5-2.2-0.5c-0.8,0-1.4,0.3-2.2,0.5c-0.5,0.3-1.4,0.5-1.6,1.1
			c-0.5,0.5-0.8,1.1-1.1,1.6c-0.3,0.5-0.5,1.4-0.5,2.2c0,0.8,0.3,1.4,0.5,2.2c0.3,0.5,0.8,1.4,1.1,1.6c0.5,0.5,1.1,0.8,1.6,1.1
			c0.5,0.3,1.4,0.5,2.2,0.5c0.8,0,1.4-0.3,2.2-0.5c0.5-0.3,1.4-0.5,1.6-1.1c0.5-0.5,0.8-1.1,1.1-1.6
			C619.1,280.2,619.3,279.7,619.3,278.9z M614.4,279.7h-1.9v2.2c0,0.3-0.3,0.5-0.5,0.5s-0.3,0-0.5,0c0,0-0.3-0.3-0.3-0.5v-6.3
			c0-0.3,0-0.3,0-0.3s0.3-0.3,0.5-0.3h1.9c1.1,0,1.9,0.3,2.2,0.5c0.5,0.3,0.8,1.1,0.8,1.9c0,0.3,0,0.8-0.3,1.1
			c-0.3,0.3-0.5,0.5-0.8,0.8l0.8,2.2v0.3c0,0.3-0.3,0.5-0.5,0.5c-0.3,0-0.3,0-0.5-0.3c0,0-0.3-0.3-0.3-0.5L614.4,279.7z
			 M615.5,277.5c0-0.3,0-0.5-0.3-0.8c-0.3-0.3-0.5-0.3-0.8-0.3h-1.4v2.2h1.6c0.5,0,0.8,0,0.8-0.3C615.3,278,615.5,277.8,615.5,277.5
			z"/>
	</g>
</g>
<g id="Layer_2">
</g>
</svg>
