<svg width="1280" height="720" xmlns="http://www.w3.org/2000/svg" xmlns:xlink="http://www.w3.org/1999/xlink" overflow="hidden"><defs><clipPath id="clip0"><rect x="0" y="0" width="1280" height="720"/></clipPath></defs><g clip-path="url(#clip0)"><rect x="0" y="0" width="1280" height="720" fill="#FFFFFF"/><path d="M0 171C422.4 171 844.8 171 1280 171 1280 295.74 1280 420.48 1280 549 857.6 549 435.2 549 0 549 0 424.26 0 299.52 0 171Z" fill="#FEFEFE" fill-rule="evenodd" fill-opacity="0"/><path d="M0 171C70.2901 171 140.58 171 213 171 212.162 172.254 211.323 173.509 210.459 174.801 209.687 176.004 208.919 177.209 208.157 178.418 207.941 178.759 207.725 179.101 207.503 179.453 206.794 180.577 206.086 181.701 205.378 182.826 205.132 183.216 204.887 183.606 204.634 184.007 201.293 189.318 197.983 194.647 194.694 199.99 192.854 202.976 190.991 205.945 189.107 208.902 187.305 211.739 185.542 214.598 183.781 217.46 181.629 220.958 179.458 224.443 177.251 227.908 175.449 230.744 173.685 233.604 171.925 236.466 169.741 240.015 167.539 243.551 165.302 247.067 163.545 249.832 161.817 252.613 160.093 255.398 158.357 258.201 156.607 260.995 154.854 263.787 152.595 267.384 150.357 270.993 148.131 274.61 146.005 278.065 143.859 281.506 141.68 284.927 139.878 287.763 138.115 290.623 136.354 293.484 134.188 297.004 132.006 300.511 129.79 303.999 125.539 310.687 121.355 317.416 117.201 324.164 115.361 327.15 113.498 330.118 111.614 333.076 109.812 335.912 108.049 338.772 106.288 341.634 104.136 345.132 101.965 348.617 99.7578 352.082 97.9556 354.918 96.1922 357.778 94.4315 360.64 92.2477 364.189 90.0455 367.725 87.8088 371.241 86.0529 374.004 84.3257 376.784 82.6023 379.567 80.8382 382.415 79.062 385.255 77.2814 388.093 75.0701 391.617 72.8696 395.148 70.6786 398.685 68.9632 401.452 67.2351 404.21 65.5039 406.967 63.2454 410.564 61.0074 414.173 58.7814 417.79 56.4412 421.592 54.0747 425.375 51.6802 429.143 47.6676 435.459 43.7218 441.816 39.7983 448.188 37.1216 452.531 34.4138 456.855 31.6997 461.175 30.377 463.281 29.0569 465.389 27.7366 467.497 26.1549 470.022 24.5726 472.547 22.9876 475.07 19.9286 479.941 16.8945 484.827 13.8794 489.725 12.012 492.756 10.1241 495.772 8.21021 498.773 7.07311 500.559 5.95179 502.353 4.84498 504.158 4.5932 504.568 4.34132 504.978 4.08186 505.4 3.59272 506.197 3.10536 506.996 2.61989 507.796 2.29082 508.332 2.29082 508.332 1.95522 508.878 1.76139 509.197 1.56746 509.515 1.36774 509.843 0.846935 510.578 0.846935 510.578 0 511 0 398.8 0 286.6 0 171Z" fill="#FEFEFE" fill-rule="evenodd"/><path d="M211.695 172C212.118 172.844 212.118 172.844 211.941 173.585 211.834 173.885 211.727 174.184 211.616 174.493 211.437 175.007 211.437 175.007 211.254 175.531 211.121 175.906 210.988 176.28 210.85 176.666 209.663 180.099 208.613 183.548 207.656 187.052 206.72 190.465 205.713 193.83 204.566 197.177 203.786 199.46 203.086 201.757 202.416 204.074 201.599 206.889 200.735 209.69 199.867 212.49 198.925 215.534 197.987 218.579 197.095 221.637 195.393 227.466 193.596 233.267 191.803 239.069 190.647 242.811 189.498 246.555 188.4 250.315 186.777 255.863 185.061 261.383 183.354 266.906 182.198 270.646 181.05 274.388 179.953 278.147 179.104 281.052 178.217 283.946 177.332 286.841 176.529 289.47 175.732 292.102 174.943 294.736 173.127 300.791 171.281 306.837 169.415 312.876 168.259 316.614 167.112 320.354 166.016 324.11 165.259 326.695 164.479 329.274 163.696 331.852 163.573 332.255 163.451 332.658 163.325 333.074 163.088 333.85 162.849 334.626 162.609 335.401 162.394 336.091 162.184 336.782 161.979 337.475 161.196 340.009 160.033 342.227 158.732 344.531 158.274 345.354 157.817 346.177 157.361 347.001 157.125 347.423 156.889 347.846 156.646 348.282 155.486 350.371 154.351 352.473 153.214 354.575 152.753 355.425 152.292 356.275 151.831 357.125 151.368 357.98 150.905 358.834 150.441 359.689 147.565 364.995 144.685 370.3 141.789 375.596 139.311 380.129 136.85 384.671 134.389 389.213 131.512 394.52 128.632 399.824 125.736 405.12 123.258 409.653 120.797 414.195 118.336 418.737 115.46 424.044 112.579 429.348 109.683 434.644 107.205 439.177 104.745 443.719 102.283 448.261 99.407 453.568 96.5267 458.872 93.6304 464.168 91.1524 468.701 88.6918 473.243 86.2305 477.785 83.3566 483.087 80.4803 488.389 77.5841 493.679 76.4571 495.739 75.3355 497.802 74.2206 499.868 73.9777 500.318 73.7348 500.768 73.4846 501.231 73.0207 502.09 72.5574 502.95 72.0952 503.811 68.2622 510.908 68.2622 510.908 67.2206 511.948 66.3545 511.989 65.487 512 64.6198 511.999 64.3452 511.999 64.0706 512 63.7876 512 62.8607 512.001 61.9337 511.998 61.0068 511.996 60.345 511.996 59.6832 511.996 59.0215 511.996 57.2191 511.996 55.4169 511.994 53.6146 511.991 51.7332 511.988 49.8518 511.988 47.9704 511.988 44.4051 511.986 40.8399 511.983 37.2748 511.979 33.2169 511.974 29.1591 511.971 25.1013 511.969 16.7517 511.965 8.40218 511.958 0.0525635 511.948 0.571064 510.626 1.09659 509.431 1.86606 508.236 2.05942 507.934 2.25268 507.631 2.45181 507.32 2.66206 506.994 2.87221 506.669 3.08887 506.333 3.54893 505.614 4.00878 504.894 4.46842 504.173 4.83395 503.602 4.83395 503.602 5.20683 503.019 6.51892 500.959 7.8137 498.888 9.10859 496.817 9.51063 496.175 9.51063 496.175 9.92086 495.519 11.8622 492.414 13.7934 489.303 15.7209 486.19 17.4431 483.409 19.1748 480.635 20.9105 477.864 21.1755 477.441 21.4404 477.018 21.7134 476.582 23.0428 474.46 24.3732 472.338 25.7043 470.217 28.7555 465.353 31.7823 460.474 34.7899 455.583 36.6251 452.602 38.4838 449.637 40.363 446.683 42.1606 443.851 43.9198 440.996 45.6761 438.138 47.8546 434.594 50.0515 431.063 52.2828 427.551 54.0355 424.791 55.7596 422.013 57.4795 419.232 59.2115 416.433 60.9564 413.643 62.7057 410.855 64.9587 407.263 67.1914 403.659 69.412 400.047 71.5644 396.546 73.7359 393.06 75.9399 389.591 77.6915 386.833 79.4144 384.057 81.1334 381.277 82.8934 378.434 84.6652 375.597 86.4417 372.763 88.4212 369.605 90.3942 366.443 92.3558 363.274 94.5846 359.673 96.8294 356.082 99.0786 352.494 100.788 349.765 102.49 347.032 104.184 344.294 106.129 341.152 108.084 338.015 110.045 334.883 110.443 334.249 110.443 334.249 110.848 333.601 112.178 331.479 113.508 329.358 114.839 327.237 117.89 322.374 120.915 317.497 123.922 312.607 125.789 309.573 127.679 306.556 129.59 303.55 131.341 300.791 133.064 298.015 134.783 295.236 136.543 292.392 138.315 289.556 140.092 286.722 142.298 283.203 144.493 279.677 146.678 276.145 148.39 273.382 150.114 270.627 151.841 267.874 154.094 264.282 156.326 260.678 158.547 257.066 160.699 253.566 162.871 250.079 165.075 246.611 166.826 243.852 168.549 241.076 170.268 238.297 172.028 235.453 173.8 232.617 175.577 229.783 177.556 226.625 179.529 223.462 181.491 220.293 183.436 217.151 185.39 214.014 187.352 210.882 187.75 210.248 187.75 210.248 188.155 209.6 189.484 207.478 190.815 205.357 192.146 203.236 194.905 198.837 197.648 194.428 200.369 190.005 203.123 185.526 205.913 181.073 208.738 176.64 209.061 176.132 209.384 175.625 209.707 175.117 210.369 174.078 211.032 173.038 211.695 172Z" fill="#F00000" fill-rule="evenodd"/><path d="M723.966 368.192C727.124 368.163 730.283 368.14 733.441 368.127 734.908 368.12 736.375 368.111 737.842 368.097 739.53 368.08 741.218 368.074 742.906 368.069 743.43 368.062 743.955 368.056 744.495 368.049 749.223 368.048 749.223 368.048 751.068 369.458 752.762 371.475 753.52 373.817 754.375 376.267 754.527 376.693 754.678 377.119 754.835 377.557 755.165 378.483 755.493 379.409 755.819 380.335 756.526 382.339 757.24 384.34 757.954 386.341 758.33 387.397 758.706 388.453 759.082 389.51 761.129 395.263 763.217 401.002 765.307 406.74 765.684 407.775 766.06 408.809 766.436 409.844 767.174 411.87 767.911 413.896 768.648 415.923 769.636 418.638 770.623 421.355 771.609 424.071 771.76 424.487 771.911 424.902 772.067 425.331 772.804 427.359 773.54 429.388 774.275 431.417 775.634 435.165 776.996 438.911 778.372 442.653 779.03 444.445 779.686 446.237 780.342 448.029 780.652 448.873 780.963 449.717 781.275 450.561 783.166 455.676 784.845 460.786 786.216 466.065 786.36 465.78 786.505 465.496 786.654 465.203 789.189 460.239 791.725 455.322 794.756 450.639 796.345 448.183 797.852 445.677 799.37 443.178 799.681 442.667 799.993 442.155 800.304 441.643 800.939 440.6 801.573 439.557 802.207 438.514 803.572 436.269 804.94 434.026 806.307 431.783 807.056 430.554 807.805 429.326 808.554 428.097 808.854 427.605 809.154 427.112 809.454 426.62 809.602 426.377 809.751 426.133 809.904 425.882 825.652 400.043 825.652 400.043 826.101 399.305 826.401 398.812 826.702 398.32 827.002 397.827 827.749 396.601 828.497 395.374 829.244 394.148 830.941 391.365 832.636 388.58 834.33 385.795 835.673 383.585 837.022 381.379 838.372 379.173 839.066 378.032 839.753 376.889 840.438 375.743 840.802 375.142 841.167 374.541 841.532 373.94 841.681 373.685 841.831 373.429 841.985 373.166 843.256 371.093 844.997 369.287 847.196 368.192 847.991 368.154 848.788 368.143 849.585 368.144 850.085 368.144 850.585 368.144 851.101 368.144 851.643 368.147 852.185 368.149 852.744 368.151 853.297 368.151 853.85 368.152 854.42 368.153 855.892 368.154 857.364 368.159 858.836 368.163 860.337 368.168 861.839 368.169 863.34 368.172 866.287 368.176 869.234 368.183 872.18 368.192 871.68 374.679 870.965 381.117 870.099 387.565 869.763 390.076 869.433 392.589 869.102 395.101 869.037 395.592 868.972 396.083 868.905 396.588 868.414 400.312 867.943 404.039 867.496 407.768 867.401 408.555 867.401 408.555 867.305 409.357 867.206 410.18 867.107 411.003 867.009 411.825 866.492 416.134 865.961 420.441 865.431 424.748 865.377 425.191 865.323 425.633 865.266 426.089 864.485 432.452 863.692 438.814 862.891 445.176 862.236 450.373 861.597 455.572 860.968 460.773 860.312 466.19 859.631 471.604 858.947 477.017 858.485 480.677 858.036 484.338 857.606 488.001 857.095 492.363 856.575 496.723 856.052 501.083 855.916 502.217 855.781 503.352 855.646 504.487 855.451 506.137 855.253 507.787 855.055 509.437 854.995 509.948 854.935 510.458 854.873 510.985 854.788 511.685 854.788 511.685 854.701 512.399 854.652 512.811 854.603 513.223 854.552 513.647 854.395 514.579 854.395 514.579 853.971 515.001 853.243 515.04 852.514 515.05 851.785 515.049 851.319 515.049 850.852 515.049 850.372 515.048 849.865 515.046 849.357 515.044 848.835 515.042 848.318 515.041 847.802 515.041 847.27 515.04 845.613 515.038 843.956 515.032 842.299 515.027 841.179 515.025 840.059 515.023 838.939 515.021 836.186 515.017 833.433 515.01 830.68 515.001 831.195 510.203 831.775 505.418 832.423 500.636 833.097 495.657 833.747 490.678 834.28 485.681 834.764 481.154 835.343 476.642 835.947 472.129 836.706 466.465 837.43 460.798 838.111 455.124 838.18 454.556 838.248 453.989 838.316 453.422 838.349 453.143 838.383 452.864 838.417 452.576 838.659 450.572 838.909 448.569 839.163 446.566 839.199 446.281 839.235 445.996 839.273 445.702 839.345 445.128 839.418 444.555 839.491 443.981 840.05 439.578 840.578 435.173 841.055 430.76 841.497 426.691 842.006 422.634 842.564 418.579 842.667 417.822 842.667 417.822 842.772 417.051 843.166 414.242 843.632 411.464 844.231 408.691 844.025 409.038 843.819 409.385 843.607 409.743 839.677 416.361 835.727 422.966 831.708 429.531 829.394 433.315 827.122 437.123 824.857 440.937 822.462 444.971 820.039 448.982 817.545 452.956 815.486 456.25 813.501 459.587 811.518 462.927 808.642 467.77 805.744 472.598 802.796 477.398 801.323 479.802 799.868 482.214 798.448 484.65 798.167 485.129 797.885 485.608 797.595 486.102 797.068 487.003 796.545 487.906 796.028 488.812 793.949 492.345 791.566 495.246 787.486 496.439 785.867 496.617 784.271 496.635 782.643 496.623 782.22 496.632 781.797 496.64 781.362 496.649 778.767 496.647 776.409 496.472 774.359 494.751 772.634 492.632 771.662 490.596 770.773 488.033 770.64 487.664 770.508 487.295 770.371 486.915 769.932 485.688 769.499 484.458 769.065 483.229 768.752 482.351 768.438 481.473 768.123 480.595 767.449 478.711 766.776 476.826 766.104 474.941 764.478 470.383 762.818 465.837 761.162 461.29 760.216 458.693 759.272 456.095 758.328 453.498 758.144 452.99 757.959 452.482 757.769 451.959 756.586 448.704 755.404 445.449 754.222 442.193 754.07 441.774 753.918 441.355 753.762 440.924 753.612 440.511 753.462 440.097 753.308 439.672 749.61 429.481 745.896 419.295 742.175 409.113 742.148 409.436 742.12 409.758 742.092 410.091 741.338 418.83 740.316 427.514 739.16 436.208 738.718 439.547 738.328 442.892 737.94 446.237 737.757 447.784 737.571 449.331 737.385 450.877 737.334 451.301 737.283 451.725 737.23 452.161 736.872 455.126 736.51 458.091 736.147 461.055 736.078 461.619 736.078 461.619 736.007 462.196 735.777 464.075 735.547 465.955 735.316 467.834 734.872 471.446 734.435 475.058 734.01 478.672 733.652 481.712 733.283 484.752 732.912 487.791 732.839 488.386 732.767 488.981 732.694 489.576 732.351 492.398 732.007 495.22 731.658 498.041 731.504 499.29 731.35 500.539 731.196 501.788 731.124 502.378 731.051 502.968 730.977 503.558 730.578 506.767 730.222 509.966 730.001 513.192 729.895 514.157 729.895 514.157 729.471 515.001 721.785 515.001 714.099 515.001 706.18 515.001 706.18 511.205 706.18 511.205 706.432 509.371 706.487 508.96 706.543 508.549 706.6 508.125 706.66 507.69 706.721 507.254 706.784 506.806 706.846 506.345 706.909 505.884 706.973 505.41 707.106 504.429 707.24 503.448 707.374 502.467 707.724 499.919 708.066 497.37 708.408 494.821 708.475 494.326 708.541 493.831 708.61 493.321 709.061 489.943 709.477 486.565 709.833 483.176 710.296 478.78 710.86 474.401 711.447 470.02 712.206 464.355 712.93 458.688 713.611 453.014 713.68 452.447 713.748 451.88 713.816 451.313 713.866 450.894 713.866 450.894 713.917 450.467 714.159 448.463 714.409 446.46 714.663 444.457 714.699 444.172 714.735 443.887 714.772 443.593 714.845 443.019 714.918 442.446 714.991 441.873 715.54 437.548 716.061 433.222 716.529 428.888 717.067 423.904 717.723 418.938 718.39 413.97 718.956 409.754 719.492 405.539 719.943 401.308 720.499 396.094 721.185 390.899 721.896 385.704 722.686 379.878 723.331 374.037 723.966 368.192Z" fill="#FFFFFF" fill-rule="evenodd"/><path d="M196.626 275.026C196.765 275.026 196.905 275.026 197.049 275.026 196.781 278.191 196.318 281.299 195.778 284.428 195.693 284.922 195.609 285.416 195.523 285.925 195.248 287.535 194.971 289.144 194.695 290.754 194.502 291.88 194.31 293.005 194.118 294.131 193.729 296.408 193.34 298.686 192.949 300.963 192.453 303.863 191.958 306.765 191.465 309.666 191.393 310.085 191.322 310.504 191.249 310.936 191.109 311.76 190.968 312.584 190.828 313.408 189.681 320.155 188.528 326.901 187.374 333.647 186.292 339.976 185.216 346.306 184.141 352.636 183.007 359.316 181.871 365.995 180.729 372.673 179.687 378.77 178.646 384.868 177.608 390.966 177.502 391.588 177.502 391.588 177.394 392.222 177.036 394.327 176.677 396.433 176.319 398.538 175.541 403.106 174.763 407.674 173.985 412.242 173.774 413.482 173.563 414.722 173.351 415.962 173.282 416.372 173.212 416.781 173.14 417.203 172.712 419.714 172.285 422.224 171.858 424.734 171.5 426.836 171.142 428.938 170.784 431.04 170.713 431.455 170.643 431.87 170.57 432.297 169.544 438.324 168.515 444.351 167.484 450.378 166.402 456.708 165.326 463.038 164.251 469.369 163 476.735 161.747 484.101 160.486 491.466 159.814 495.396 159.145 499.328 158.478 503.259 158.247 504.621 158.016 505.983 157.785 507.344 157.636 508.221 157.488 509.099 157.34 509.976 157.133 511.199 156.925 512.422 156.718 513.644 156.657 514.002 156.597 514.36 156.535 514.729 156.119 517.174 155.639 519.592 155.152 522.026 124.428 522.026 93.7039 522.026 62.0488 522.026 62.6445 520.537 63.1144 519.476 63.9581 518.178 64.1709 517.845 64.3837 517.512 64.6029 517.169 64.8336 516.809 65.0643 516.449 65.3021 516.078 68.4653 511.059 71.2274 505.844 73.994 500.602 75.0906 498.535 76.2117 496.481 77.3367 494.429 79.0902 491.225 80.8355 488.018 82.5738 484.807 84.3313 481.561 86.0939 478.318 87.8639 475.079 90.5562 470.151 93.2309 465.214 95.9046 460.276 98.7859 454.954 101.671 449.635 104.573 444.324 107.055 439.779 109.52 435.224 111.986 430.67 114.867 425.348 117.753 420.029 120.654 414.718 123.137 410.172 125.602 405.618 128.068 401.063 130.949 395.742 133.834 390.422 136.736 385.112 139.218 380.566 141.683 376.012 144.149 371.457 147.03 366.135 149.916 360.816 152.817 355.506 155.3 350.96 157.765 346.405 160.231 341.851 163.112 336.53 165.996 331.211 168.898 325.901 170.692 322.616 172.476 319.325 174.258 316.033 175.774 313.234 177.297 310.439 178.825 307.645 180.681 304.251 182.52 300.849 184.353 297.442 188.39 289.94 192.472 282.464 196.626 275.026Z" fill="#01D843" fill-rule="evenodd"/><path d="M228.736 368.186C235.203 368.156 241.67 368.134 248.136 368.121 251.14 368.114 254.144 368.105 257.147 368.091 259.771 368.078 262.394 368.07 265.018 368.067 266.402 368.065 267.786 368.061 269.17 368.052 284.54 367.96 299.503 369.592 311.164 380.609 318.455 388.361 321.107 398.585 321.056 408.99 321.054 409.507 321.051 410.024 321.049 410.556 320.994 414.694 320.655 418.61 319.661 422.627 319.536 423.135 319.536 423.135 319.408 423.654 318.118 428.698 316.326 433.29 313.768 437.819 313.418 438.448 313.418 438.448 313.061 439.09 306.692 449.798 295.05 457.283 283.225 460.584 275.864 462.445 268.31 463.217 260.735 463.182 260.238 463.181 259.74 463.181 259.228 463.18 257.658 463.178 256.089 463.172 254.52 463.167 253.447 463.165 252.375 463.163 251.303 463.161 248.692 463.156 246.081 463.149 243.47 463.14 243.438 463.453 243.406 463.765 243.373 464.087 242.603 471.579 241.713 479.051 240.77 486.523 240.725 486.88 240.68 487.238 240.633 487.606 240.588 487.962 240.543 488.318 240.497 488.685 240.203 491.018 239.917 493.352 239.637 495.687 239.6 495.993 239.563 496.3 239.525 496.615 239.356 498.028 239.188 499.441 239.021 500.855 238.455 505.596 237.799 510.315 237.155 515.049 228.543 515.049 219.93 515.049 211.057 515.049 211.302 511.852 211.547 508.682 211.92 505.502 211.961 505.142 212.003 504.781 212.046 504.41 212.18 503.252 212.315 502.095 212.451 500.938 212.498 500.537 212.544 500.137 212.592 499.725 213.231 494.246 213.913 488.776 214.656 483.31 215.17 479.518 215.65 475.723 216.108 471.924 216.143 471.637 216.177 471.35 216.213 471.054 216.808 466.106 217.368 461.155 217.925 456.203 218.379 452.168 218.875 448.143 219.444 444.124 219.933 440.627 220.308 437.12 220.686 433.61 221.05 430.27 221.479 426.944 221.949 423.617 222.442 420.066 222.827 416.504 223.211 412.939 223.583 409.515 224.025 406.105 224.505 402.694 224.832 400.338 225.11 397.984 225.343 395.617 225.735 391.651 226.265 387.706 226.807 383.758 227.284 380.256 227.716 376.751 228.134 373.242 228.221 372.51 228.221 372.51 228.31 371.765 228.452 370.572 228.594 369.379 228.736 368.186Z" fill="#FFFFFF" fill-rule="evenodd"/><path d="M478.286 364.048C486.373 364.048 494.459 364.048 502.791 364.048 502.791 368.798 502.791 368.798 502.481 370.969 502.413 371.456 502.346 371.942 502.276 372.443 502.202 372.959 502.128 373.474 502.052 374.005 501.895 375.138 501.738 376.272 501.583 377.406 501.543 377.697 501.503 377.988 501.461 378.288 501.025 381.47 500.638 384.656 500.256 387.845 500.221 388.134 500.187 388.424 500.151 388.722 500.01 389.9 499.869 391.077 499.728 392.255 499.485 394.285 499.238 396.315 498.989 398.344 498.137 405.28 497.332 412.221 496.583 419.17 496.549 419.481 496.515 419.792 496.48 420.113 496.389 420.955 496.298 421.798 496.207 422.64 496.058 423.835 495.851 424.99 495.609 426.168 495.582 426.846 495.572 427.524 495.582 428.202 495.586 428.536 495.59 428.87 495.594 429.214 495.599 429.464 495.603 429.714 495.609 429.972 495.849 429.675 496.089 429.379 496.336 429.074 502.165 421.91 502.165 421.91 505.748 418.984 506.149 418.653 506.549 418.321 506.962 417.979 515.357 411.173 524.498 408.317 535.323 409.265 541.849 410.425 547.722 413.845 551.717 419.149 557.451 427.644 559.082 437.17 559.115 447.245 559.117 447.719 559.117 447.719 559.119 448.203 559.122 456.372 558.095 464.429 555.603 472.231 555.508 472.538 555.413 472.846 555.315 473.162 552.894 480.916 549.498 488.519 544.618 495.051 544.364 495.396 544.364 495.396 544.104 495.749 536.554 505.946 527.342 512.816 515.044 516.18 514.782 516.256 514.521 516.331 514.251 516.409 506.305 518.122 497.672 516.296 490.869 512.051 489.12 510.844 487.611 509.389 486.097 507.905 485.22 507.052 484.354 506.319 483.356 505.615 483.284 505.952 483.212 506.289 483.138 506.635 482.413 509.808 481.8 512.141 479.131 514.199 476.939 515.433 474.973 515.392 472.497 515.376 471.966 515.375 471.966 515.375 471.424 515.374 470.296 515.372 469.168 515.367 468.04 515.361 467.275 515.359 466.509 515.357 465.743 515.355 463.868 515.351 461.993 515.344 460.119 515.335 460.39 509.497 461.236 503.719 461.993 497.929 462.775 491.937 463.55 485.949 464.159 479.937 464.447 477.108 464.791 474.287 465.136 471.465 465.189 471.023 465.189 471.023 465.244 470.573 465.822 465.815 466.446 461.064 467.088 456.314 468.105 448.745 469.066 441.162 469.836 433.564 470.712 424.928 471.841 416.317 473.003 407.716 474.074 399.743 475.068 391.756 475.87 383.751 476.163 380.897 476.551 378.058 476.959 375.219 477.487 371.5 477.87 367.789 478.286 364.048Z" fill="#FFFFFF" fill-rule="evenodd"/><path d="M937.128 409.059C937.411 409.059 937.693 409.059 937.984 409.059 942.349 409.067 946.566 409.275 950.877 409.978 951.468 410.061 952.059 410.144 952.65 410.226 957.056 410.878 961.085 412.164 965.233 413.761 964.962 418.345 964.383 422.883 963.801 427.436 963.623 428.823 963.448 430.21 963.273 431.598 962.898 434.558 962.522 437.518 962.145 440.478 961.653 444.349 961.161 448.22 960.672 452.092 960.583 452.798 960.583 452.798 960.492 453.518 959.665 460.067 958.878 466.618 958.177 473.181 957.734 477.301 957.2 481.403 956.63 485.506 956.576 485.892 956.523 486.277 956.468 486.674 956.385 487.274 956.301 487.874 956.217 488.474 955.722 492.035 955.272 495.6 954.839 499.169 954.781 499.641 954.724 500.114 954.665 500.601 954.38 502.95 954.098 505.3 953.819 507.65 953.716 508.507 953.612 509.364 953.509 510.22 953.463 510.619 953.416 511.018 953.368 511.429 953.324 511.792 953.28 512.155 953.235 512.529 953.197 512.847 953.16 513.165 953.121 513.492 952.988 514.22 952.988 514.22 952.566 514.64 951.48 514.693 950.405 514.72 949.318 514.726 948.99 514.728 948.661 514.731 948.322 514.733 947.623 514.737 946.924 514.74 946.225 514.741 945.165 514.745 944.105 514.758 943.045 514.772 942.366 514.775 941.686 514.777 941.006 514.778 940.535 514.786 940.535 514.786 940.055 514.794 937.654 514.784 935.17 514.442 933.326 512.784 931.446 510.621 931.396 508.806 931.414 506.071 931.414 505.556 931.414 505.556 931.415 505.031 931.418 503.934 931.423 502.838 931.428 501.742 931.431 500.998 931.432 500.254 931.434 499.511 931.439 497.689 931.446 495.866 931.455 494.044 931.18 494.436 930.905 494.827 930.621 495.23 926.835 500.583 926.835 500.583 924.673 502.819 924.459 503.043 924.246 503.267 924.026 503.498 917.632 510.144 909.585 515.631 900.07 516.043 895.594 516.115 891.704 516.011 887.544 514.22 887.174 514.073 886.805 513.925 886.424 513.773 883.51 512.486 881.343 510.558 879.099 508.335 878.655 507.915 878.655 507.915 878.202 507.487 870.71 499.868 869.213 487.817 869.233 477.693 869.468 460.771 875.895 443.908 887.535 431.487 888.283 430.687 888.985 429.869 889.681 429.024 901.046 415.804 920.106 409.047 937.128 409.059Z" fill="#FFFFFF" fill-rule="evenodd"/><path d="M379.67 409.059C379.952 409.06 380.233 409.061 380.523 409.061 389.693 409.097 398.53 410.475 407.094 413.812 406.776 417.744 406.288 421.652 405.791 425.565 405.702 426.275 405.612 426.986 405.522 427.697 405.331 429.221 405.138 430.744 404.945 432.268 404.639 434.689 404.334 437.11 404.029 439.531 403.325 445.116 402.62 450.701 401.915 456.286 401.27 461.39 400.626 466.495 399.983 471.6 399.73 473.607 399.477 475.613 399.223 477.62 398.167 485.961 397.134 494.301 396.229 502.66 395.982 504.913 395.71 507.163 395.428 509.412 395.377 509.834 395.325 510.257 395.273 510.692 395.223 511.093 395.173 511.494 395.121 511.908 395.057 512.426 395.057 512.426 394.991 512.955 394.847 513.796 394.847 513.796 394.425 514.637 392.389 514.668 390.354 514.691 388.318 514.706 387.628 514.712 386.937 514.721 386.246 514.732 377.626 514.865 377.626 514.865 375.183 512.825 371.824 509.177 372.841 504.19 373.04 499.639 373.124 497.776 373.215 495.914 373.309 494.052 372.997 494.478 372.685 494.905 372.364 495.345 365.17 505.098 356.661 513.71 344.169 515.897 335.49 516.579 328.587 515.219 321.76 509.595 314.881 503.182 311.641 493.189 311.141 484.037 311.101 482.315 311.088 480.597 311.097 478.875 311.098 478.571 311.099 478.266 311.1 477.952 311.123 473.142 311.356 468.494 312.496 463.804 312.58 463.454 312.664 463.104 312.75 462.743 314.078 457.372 315.953 452.376 318.408 447.42 318.544 447.142 318.68 446.864 318.821 446.577 322 440.146 326.267 434.661 331.078 429.355 331.506 428.884 331.506 428.884 331.942 428.402 344.152 415.659 362.216 408.984 379.67 409.059Z" fill="#FFFFFF" fill-rule="evenodd"/><path d="M1271.19 416.901C1275.64 420.646 1279.77 426.022 1280.29 431.982 1280.51 439.745 1279.48 446.458 1274.22 452.583 1260.83 466.504 1236.48 469.396 1218.22 471.002 1217.52 471.01 1216.81 471.012 1216.1 471.002 1216.95 482.45 1216.95 482.45 1222.9 491.993 1228.79 496.081 1235.55 497.086 1242.61 496.037 1249.11 494.795 1254.34 492.054 1259.6 488.144 1262.36 486.185 1264.88 484.773 1268.33 485.276 1271.05 486.302 1272.44 488.175 1274.2 490.416 1274.98 491.402 1275.8 492.312 1276.66 493.226 1277.67 494.512 1277.67 494.512 1277.59 495.348 1276.28 498.509 1272.2 500.846 1269.6 502.908 1269.25 503.195 1268.91 503.482 1268.55 503.777 1262.4 508.821 1254.9 512.813 1247.1 514.663 1246.58 514.788 1246.06 514.913 1245.52 515.042 1241.28 515.942 1237.04 516.044 1232.71 516.053 1231.88 516.057 1231.88 516.057 1231.03 516.06 1220.86 515.986 1211.36 512.883 1204.05 505.712 1203.68 505.341 1203.32 504.97 1202.94 504.587 1202.63 504.277 1202.31 503.966 1201.99 503.646 1193.08 494.322 1191.06 481.739 1191.34 469.402 1191.99 451.841 1199.63 434.466 1212.63 422.409 1228.17 408.515 1253.73 403.531 1271.19 416.901Z" fill="#FFFFFF" fill-rule="evenodd"/><path d="M1170.78 412.418C1177.35 417.66 1180.99 424.414 1182.18 432.777 1182.29 434.914 1182.29 437.053 1182.29 439.192 1182.29 439.501 1182.29 439.81 1182.29 440.128 1182.29 446.362 1181.75 452.471 1180.92 458.649 1180.86 459.054 1180.81 459.458 1180.75 459.875 1180.55 461.4 1180.34 462.925 1180.12 464.449 1179.71 467.441 1179.38 470.437 1179.07 473.441 1178.56 478.408 1177.95 483.36 1177.33 488.313 1176.62 493.899 1175.96 499.484 1175.42 505.089 1175.09 508.439 1174.63 511.719 1174.16 515.06 1165.79 515.06 1157.43 515.06 1148.81 515.06 1149.05 512.425 1149.29 509.813 1149.6 507.19 1149.64 506.891 1149.67 506.591 1149.71 506.282 1149.79 505.62 1149.87 504.958 1149.95 504.296 1150.18 502.365 1150.41 500.435 1150.64 498.504 1150.72 497.842 1150.72 497.842 1150.8 497.167 1151.56 490.804 1152.3 484.439 1153.05 478.074 1153.21 476.647 1153.38 475.22 1153.55 473.793 1153.79 471.742 1154.03 469.692 1154.27 467.641 1154.3 467.311 1154.34 466.982 1154.38 466.643 1154.97 461.555 1155.52 456.465 1156.02 451.367 1156.07 450.902 1156.11 450.437 1156.16 449.957 1156.2 449.555 1156.24 449.152 1156.28 448.738 1156.41 447.643 1156.61 446.581 1156.84 445.501 1157.26 440.553 1156.94 436.286 1154.41 431.928 1151.81 429.613 1148.92 429.603 1145.6 429.688 1143.66 429.85 1142.12 430.259 1140.36 431.08 1140 431.241 1139.65 431.402 1139.28 431.567 1135.88 433.246 1133.29 435.634 1130.65 438.291 1130.33 438.606 1130.02 438.922 1129.69 439.246 1125.85 443.348 1123.25 448.494 1120.9 453.567 1120.54 454.344 1120.17 455.115 1119.79 455.886 1118.25 459.441 1117.65 462.934 1117.19 466.771 1117.12 467.34 1117.05 467.908 1116.98 468.477 1115.98 476.572 1115.12 484.684 1114.23 492.793 1113.86 496.248 1113.48 499.704 1113.1 503.159 1112.97 504.354 1112.84 505.549 1112.71 506.744 1112.63 507.473 1112.55 508.202 1112.47 508.931 1112.43 509.258 1112.4 509.585 1112.36 509.922 1112.17 511.651 1111.92 513.342 1111.64 515.06 1103.27 515.06 1094.91 515.06 1086.29 515.06 1086.56 512.046 1086.86 509.048 1087.22 506.046 1087.27 505.639 1087.32 505.233 1087.37 504.815 1087.47 503.94 1087.58 503.067 1087.68 502.193 1087.85 500.794 1088.02 499.394 1088.19 497.995 1088.54 495.059 1088.89 492.123 1089.25 489.187 1089.68 485.6 1090.11 482.013 1090.54 478.425 1090.59 477.984 1090.65 477.543 1090.7 477.089 1091.48 470.624 1092.22 464.155 1092.94 457.683 1093.76 450.347 1094.67 443.024 1095.59 435.701 1096.48 428.659 1097.32 421.615 1098.05 414.555 1098.08 414.264 1098.12 413.972 1098.15 413.672 1098.23 412.905 1098.31 412.137 1098.39 411.37 1098.54 410.297 1098.54 410.297 1098.96 409.873 1099.99 409.82 1101 409.793 1102.03 409.787 1102.49 409.783 1102.49 409.783 1102.97 409.78 1103.63 409.776 1104.29 409.773 1104.95 409.771 1105.95 409.767 1106.95 409.754 1107.94 409.741 1108.59 409.738 1109.23 409.735 1109.87 409.734 1110.16 409.729 1110.46 409.723 1110.76 409.718 1113.44 409.73 1115.6 410.455 1117.89 411.888 1120.17 414.24 1120.15 416.372 1120.12 419.487 1120.07 421.762 1119.98 424.035 1119.87 426.309 1119.85 426.771 1119.83 427.234 1119.81 427.71 1119.76 428.834 1119.71 429.957 1119.66 431.08 1119.96 430.649 1119.96 430.649 1120.27 430.209 1122.29 427.35 1124.45 424.724 1126.84 422.173 1127.1 421.891 1127.35 421.609 1127.61 421.318 1137.74 410.485 1157.45 402.854 1170.78 412.418Z" fill="#FFFFFF" fill-rule="evenodd"/><path d="M563.141 410.252C566.422 410.209 569.703 410.179 572.985 410.159 574.101 410.15 575.217 410.138 576.333 410.124 577.938 410.103 579.543 410.094 581.149 410.086 581.647 410.077 582.145 410.069 582.658 410.06 585.329 410.059 587.078 410.067 589.059 411.947 590.588 414.198 591.164 417.034 591.741 419.657 591.923 420.448 592.104 421.238 592.286 422.029 592.381 422.453 592.477 422.877 592.576 423.314 593.135 425.772 593.715 428.225 594.291 430.679 594.481 431.493 594.671 432.307 594.861 433.121 596.83 441.552 598.81 449.979 600.85 458.393 600.973 458.902 601.095 459.41 601.222 459.934 601.727 462.025 602.235 464.115 602.763 466.201 603.785 470.283 604.381 474.322 604.78 478.503 604.947 478.119 605.113 477.736 605.285 477.34 609.445 467.845 613.973 458.507 618.497 449.18 620.093 445.881 621.646 442.564 623.183 439.237 625.269 434.727 627.409 430.246 629.583 425.778 629.724 425.489 629.864 425.199 630.009 424.901 630.812 423.252 631.618 421.605 632.429 419.959 632.833 419.134 633.231 418.306 633.63 417.478 633.89 416.943 634.151 416.408 634.411 415.874 634.753 415.165 634.753 415.165 635.102 414.442 636.211 412.491 637.6 411.26 639.621 410.252 640.342 410.213 641.064 410.202 641.785 410.204 642.461 410.204 642.461 410.204 643.151 410.204 643.639 410.206 644.127 410.208 644.63 410.21 645.129 410.211 645.628 410.212 646.141 410.212 647.739 410.215 649.337 410.22 650.934 410.225 652.015 410.227 653.096 410.229 654.177 410.231 656.832 410.236 659.486 410.243 662.141 410.252 661.688 411.663 661.24 413.01 660.532 414.314 660.305 414.738 660.305 414.738 660.073 415.17 659.906 415.479 659.738 415.789 659.565 416.107 657.547 419.879 655.575 423.672 653.616 427.473 653.306 428.076 652.995 428.678 652.685 429.28 651.889 430.822 651.094 432.366 650.298 433.909 648.891 436.639 647.483 439.369 646.074 442.099 645.846 442.541 645.846 442.541 645.613 442.992 643.571 446.95 641.516 450.9 639.448 454.844 637.597 458.378 635.767 461.922 633.938 465.467 631.473 470.247 629.002 475.022 626.52 479.793 624.732 483.23 622.948 486.668 621.165 490.108 621.033 490.363 620.9 490.618 620.764 490.881 620.095 492.173 619.425 493.465 618.755 494.757 617.293 497.579 615.83 500.4 614.367 503.222 613.969 503.989 613.571 504.757 613.173 505.525 613.042 505.778 612.911 506.031 612.775 506.292 611.974 507.838 611.173 509.383 610.372 510.928 605.83 519.694 605.83 519.694 603.706 523.78 603.462 524.25 603.218 524.72 602.966 525.204 602.479 526.141 601.992 527.077 601.504 528.013 600.32 530.286 599.141 532.562 597.978 534.845 597.403 535.973 596.826 537.099 596.249 538.225 595.974 538.764 595.7 539.304 595.427 539.844 591.599 547.417 591.599 547.417 587.359 548.874 585.695 549.092 584.057 549.072 582.38 549.039 581.68 549.036 581.68 549.036 580.966 549.032 579.485 549.023 578.005 549.001 576.525 548.98 575.517 548.971 574.509 548.964 573.501 548.957 571.039 548.938 568.577 548.91 566.115 548.874 567.875 545.297 569.697 541.782 571.692 538.329 573.869 534.524 575.98 530.689 578.06 526.83 579.448 524.261 580.866 521.712 582.318 519.178 583.017 517.952 583.702 516.718 584.387 515.483 585.152 514.115 585.951 512.822 586.867 511.549 588.672 508.889 589.274 507.015 588.676 503.789 588.084 501.275 587.33 498.822 586.521 496.37 585.951 494.625 585.471 492.861 584.996 491.088 584.828 490.487 584.658 489.886 584.488 489.285 583.884 487.142 583.298 484.995 582.712 482.848 582.552 482.261 582.552 482.261 582.388 481.662 582.171 480.865 581.954 480.069 581.737 479.272 581.204 477.32 580.67 475.368 580.136 473.416 579.924 472.639 579.711 471.862 579.499 471.084 579.394 470.7 579.289 470.315 579.18 469.919 577.162 462.535 575.144 455.152 573.126 447.769 573.026 447.406 572.927 447.042 572.825 446.668 572.613 445.892 572.401 445.116 572.188 444.34 571.67 442.445 571.152 440.55 570.634 438.655 570.096 436.687 569.558 434.72 569.021 432.753 568.782 431.879 568.543 431.005 568.304 430.131 567.572 427.454 566.841 424.776 566.112 422.097 565.862 421.18 565.611 420.262 565.36 419.345 564.992 417.999 564.626 416.652 564.259 415.306 564.146 414.894 564.034 414.483 563.917 414.059 563.815 413.682 563.713 413.304 563.607 412.916 563.517 412.584 563.426 412.253 563.333 411.911 563.141 411.1 563.141 411.1 563.141 410.252Z" fill="#FFFFFF" fill-rule="evenodd"/><path d="M432.235 364.048C440.443 364.048 448.651 364.048 457.107 364.048 456.864 366.726 456.619 369.382 456.3 372.048 456.264 372.35 456.228 372.651 456.191 372.961 456.076 373.927 455.959 374.892 455.843 375.858 455.803 376.181 455.764 376.505 455.724 376.838 455.476 378.891 455.225 380.943 454.974 382.995 454.743 384.882 454.513 386.769 454.283 388.656 454.237 389.035 454.19 389.414 454.143 389.805 453.733 393.162 453.325 396.519 452.918 399.876 452.817 400.707 452.716 401.538 452.615 402.369 451.996 407.48 451.388 412.593 450.813 417.71 450.092 424.133 449.336 430.548 448.496 436.957 447.604 443.778 446.784 450.608 445.959 457.438 445.759 459.092 445.557 460.747 445.354 462.402 444.805 466.906 444.299 471.413 443.828 475.927 443.447 479.56 443.01 483.173 442.465 486.785 441.728 491.795 441.172 496.829 440.582 501.857 440.538 502.23 440.495 502.602 440.45 502.986 440.369 503.677 440.288 504.369 440.207 505.06 439.818 508.392 439.396 511.718 438.98 515.048 430.772 515.048 422.564 515.048 414.107 515.048 415.531 502.231 416.972 489.417 418.544 476.617 418.743 474.986 418.94 473.355 419.135 471.724 419.746 466.623 420.367 461.523 421.025 456.427 421.103 455.822 421.103 455.822 421.183 455.204 421.236 454.795 421.289 454.385 421.343 453.964 422.328 446.328 423.264 438.69 424.113 431.037 424.854 424.375 425.686 417.726 426.543 411.077 427.505 403.617 428.419 396.154 429.251 388.678 430.165 380.458 431.194 372.254 432.235 364.048Z" fill="#FFFFFF" fill-rule="evenodd"/><path d="M1044.26 411.563C1043.62 416.067 1042.79 420.529 1041.94 424.997 1041.71 426.223 1041.48 427.449 1041.25 428.676 1041.1 429.457 1040.95 430.237 1040.8 431.017 1040.7 431.567 1040.7 431.567 1040.6 432.127 1040.1 434.689 1040.1 434.689 1039.64 435.631 1038.91 435.448 1038.91 435.448 1038.16 435.261 1031.33 433.606 1026.3 433.252 1020.05 436.95 1011.83 442.495 1007.93 453.067 1005.19 462.232 1005.04 462.713 1004.89 463.195 1004.73 463.691 1003.17 469.043 1002.62 474.561 1002.06 480.093 1001.61 484.495 1001.09 488.882 1000.52 493.269 999.733 499.234 999.007 505.197 998.423 511.185 998.378 511.632 998.334 512.08 998.288 512.541 998.25 512.929 998.213 513.317 998.175 513.717 998.045 514.589 998.045 514.589 997.625 515.012 996.864 515.051 996.102 515.061 995.34 515.059 994.608 515.059 994.608 515.059 993.862 515.059 993.066 515.056 993.066 515.056 992.253 515.053 991.713 515.052 991.173 515.052 990.616 515.051 989.177 515.049 987.739 515.045 986.3 515.041 984.833 515.036 983.366 515.034 981.899 515.032 979.018 515.028 976.138 515.02 973.258 515.012 973.542 511.504 973.867 508.006 974.256 504.508 974.31 504.014 974.365 503.519 974.421 503.01 974.809 499.56 975.242 496.119 975.74 492.684 976.072 490.359 976.328 488.029 976.564 485.692 977.163 479.813 977.95 473.956 978.706 468.096 979.357 463.044 980.001 457.995 980.51 452.926 980.897 449.125 981.397 445.339 981.889 441.551 982.715 435.175 983.513 428.8 984.189 422.405 984.626 418.35 985.217 414.323 985.861 410.296 987.826 410.265 989.791 410.242 991.756 410.227 992.423 410.22 993.09 410.212 993.757 410.201 1002.13 410.066 1002.13 410.066 1005.16 412.592 1006.4 414.136 1006.97 415.228 1006.96 417.222 1006.96 417.585 1006.96 417.948 1006.96 418.323 1006.96 418.711 1006.95 419.1 1006.95 419.5 1006.95 419.9 1006.95 420.301 1006.95 420.714 1006.94 421.991 1006.93 423.269 1006.92 424.547 1006.92 425.414 1006.91 426.281 1006.91 427.148 1006.9 429.272 1006.88 431.396 1006.87 433.519 1007 433.302 1007.13 433.085 1007.26 432.862 1007.86 431.866 1008.46 430.872 1009.06 429.878 1009.26 429.536 1009.46 429.195 1009.68 428.843 1011.33 426.1 1013.15 423.678 1015.27 421.274 1015.57 420.916 1015.86 420.558 1016.17 420.189 1023.79 411.195 1033.13 407.823 1044.26 411.563Z" fill="#FFFFFF" fill-rule="evenodd"/><path d="M1053.87 410.06C1061.92 410.06 1069.97 410.06 1078.26 410.06 1078.26 415.763 1078.26 415.763 1077.89 417.791 1077.51 420.069 1077.21 422.344 1076.95 424.639 1076.6 427.758 1076.23 430.875 1075.85 433.991 1075.32 438.416 1074.79 442.841 1074.28 447.268 1074.01 449.534 1073.75 451.798 1073.48 454.063 1073.42 454.529 1073.37 454.994 1073.31 455.474 1072.99 458.18 1072.66 460.886 1072.34 463.592 1071.25 472.694 1070.18 481.797 1069.17 490.909 1068.56 496.405 1067.92 501.896 1067.22 507.381 1067.15 507.92 1067.09 508.46 1067.02 509.015 1066.75 511.05 1066.47 513.045 1066.07 515.06 1057.88 515.06 1049.69 515.06 1041.26 515.06 1041.73 510.756 1041.73 510.756 1041.93 509.132 1041.97 508.763 1042.01 508.395 1042.06 508.016 1042.11 507.627 1042.15 507.239 1042.2 506.838 1042.25 506.42 1042.3 506.002 1042.35 505.572 1042.46 504.675 1042.56 503.778 1042.67 502.881 1042.95 500.495 1043.24 498.108 1043.52 495.721 1043.58 495.238 1043.64 494.754 1043.7 494.257 1044.33 488.948 1044.95 483.639 1045.58 478.329 1046.18 473.162 1046.8 467.996 1047.41 462.829 1047.66 460.738 1047.91 458.648 1048.15 456.557 1048.25 455.732 1048.35 454.908 1048.45 454.084 1048.66 452.323 1048.86 450.563 1049.07 448.802 1049.58 444.492 1050.1 440.181 1050.61 435.871 1050.84 433.968 1051.07 432.065 1051.29 430.162 1051.4 429.263 1051.51 428.364 1051.62 427.466 1051.77 426.203 1051.92 424.941 1052.07 423.678 1052.11 423.282 1052.16 422.886 1052.21 422.478 1052.57 419.441 1052.89 416.401 1053.18 413.357 1053.41 411.002 1053.41 411.002 1053.87 410.06Z" fill="#FFFFFF" fill-rule="evenodd"/><path d="M527.262 429.941C531.385 432.966 532.989 437.974 533.82 442.821 534.228 446.145 534.143 449.512 534.074 452.854 534.064 453.507 534.064 453.507 534.053 454.173 533.515 465.742 529.37 479.483 521.301 488.072 520.755 488.666 520.755 488.666 520.198 489.272 515.898 493.828 511.196 496.668 504.845 497.051 498.926 497.229 492.91 495.713 488.409 491.705 487.399 490.749 487.248 490.316 487.132 488.909 487.359 485.306 487.865 481.732 488.325 478.152 488.517 476.602 488.69 475.05 488.86 473.496 489.608 467.02 490.864 461.32 493.625 455.4 493.768 455.09 493.911 454.78 494.058 454.461 494.987 452.476 495.99 450.539 497.031 448.611 497.165 448.357 497.299 448.103 497.436 447.841 501.521 440.108 507.536 431.964 515.952 428.694 519.837 427.588 523.764 427.901 527.262 429.941Z" fill="#FDFDFE" fill-rule="evenodd"/><path d="M252.856 388.204C255.937 388.161 259.017 388.132 262.097 388.112 263.142 388.104 264.187 388.092 265.232 388.078 273.798 387.961 282.546 388.031 289.29 394.083 294.415 399.548 295.187 406.228 295.049 413.354 294.694 421.254 292.08 428.913 286.348 434.553 278.008 442.064 267.521 442.144 256.916 442.033 255.861 442.027 254.806 442.021 253.751 442.016 251.188 442.002 248.626 441.981 246.063 441.954 246.461 437.754 246.871 433.576 247.558 429.41 247.91 427.138 248.138 424.852 248.382 422.566 249.118 415.69 249.959 408.827 250.823 401.965 250.958 400.893 251.092 399.82 251.226 398.747 251.416 397.231 251.608 395.716 251.8 394.2 251.857 393.74 251.915 393.28 251.974 392.806 252.028 392.384 252.082 391.961 252.138 391.526 252.184 391.157 252.231 390.787 252.279 390.407 252.432 389.464 252.432 389.464 252.856 388.204Z" fill="#FDFDFE" fill-rule="evenodd"/><path d="M933.795 427.067C934.318 427.071 934.842 427.075 935.381 427.079 936.664 427.089 937.947 427.103 939.229 427.12 938.644 433.318 937.997 439.508 937.264 445.69 937.146 446.697 937.033 447.705 936.924 448.713 935.299 463.663 929.246 482.617 917.264 492.527 913.174 495.528 909.538 496.499 904.533 495.892 901.523 494.823 899.371 492.761 897.845 489.948 895.629 485.113 895.187 480.016 895.232 474.746 895.235 474.261 895.239 473.777 895.242 473.278 895.413 459.657 900.269 446.982 909.674 437.154 916.446 430.648 924.447 426.937 933.795 427.067Z" fill="#FDFDFE" fill-rule="evenodd"/><path d="M380.072 427.21C380.183 430.496 379.843 433.624 379.367 436.871 379.21 437.961 379.053 439.05 378.898 440.14 378.857 440.426 378.816 440.712 378.774 441.006 378.46 443.219 378.195 445.436 377.941 447.657 377.052 455.296 375.899 462.402 372.963 469.56 372.72 470.163 372.72 470.163 372.471 470.778 368.687 479.996 363.59 490.216 354.48 495.033 351.501 496.249 347.88 496.337 344.781 495.569 341.841 494.289 339.715 491.723 338.431 488.82 334.023 476.58 336.288 462.062 341.574 450.491 346.405 440.234 354.382 432.607 364.775 428.313 369.745 426.704 374.914 427.049 380.072 427.21Z" fill="#FDFEFE" fill-rule="evenodd"/><path d="M1066.49 368.538C1066.77 368.648 1067.04 368.758 1067.33 368.872 1068.86 369.505 1070.22 370.209 1071.57 371.172 1072.92 372.169 1072.92 372.169 1074.23 371.837 1074.67 371.618 1075.1 371.398 1075.55 371.172 1078.05 370.049 1080.56 369.208 1083.21 368.538 1083.49 368.467 1083.77 368.396 1084.06 368.323 1094.37 365.806 1105.22 367.115 1114.45 372.399 1118.47 375.019 1122.75 378.062 1125.26 382.239 1123.74 381.654 1122.33 380.961 1120.89 380.191 1115.12 377.25 1109.12 375.685 1102.65 375.721 1102.2 375.723 1101.76 375.725 1101.3 375.727 1090.11 375.896 1079.62 380.814 1071.22 388.113 1070.07 389.049 1070.07 389.049 1069.23 389.049 1069.01 388.617 1068.78 388.185 1068.55 387.739 1065.05 381.141 1060.99 375.159 1053.61 372.73 1048.2 371.493 1043.66 373.082 1039.08 375.97 1037.35 377.21 1035.8 378.635 1034.26 380.111 1034.26 377.36 1037.21 374.94 1039 373.034 1041.02 371.056 1043.17 369.547 1045.64 368.192 1045.96 368.007 1046.29 367.821 1046.62 367.63 1052.6 364.835 1060.6 366.132 1066.49 368.538Z" fill="#04D945" fill-rule="evenodd"/><path d="M1254.29 428.666C1256.57 430.813 1257.15 432.756 1257.31 435.871 1257.24 438.946 1256.32 441.201 1254.34 443.529 1246.48 451.123 1229.69 454.264 1219.31 454.054 1219.53 451.731 1219.95 449.67 1220.79 447.485 1220.9 447.196 1221.01 446.907 1221.12 446.609 1224.31 438.474 1229.61 431.388 1237.61 427.632 1242.8 425.591 1249.63 425.163 1254.29 428.666Z" fill="#FDFDFE" fill-rule="evenodd"/><path d="M211.684 172C212.122 172.727 212.122 172.727 211.939 173.422 211.828 173.68 211.716 173.939 211.602 174.205 211.443 174.594 211.443 174.594 211.282 174.99 210.807 175.636 210.807 175.636 209.881 175.908 209.609 175.938 209.336 175.969 209.055 176 209.69 174.506 210.593 173.297 211.684 172Z" fill="#F32B2B" fill-rule="evenodd"/><path d="M196.469 275.027C196.667 275.027 196.865 275.027 197.069 275.027 196.919 276.527 196.919 276.527 196.469 278.138 195.232 278.777 195.232 278.777 194.069 279.027 194.789 277.657 195.555 276.332 196.469 275.027Z" fill="#21DE5C" fill-rule="evenodd"/></g></svg>