<svg width="1280" height="720" xmlns="http://www.w3.org/2000/svg" xmlns:xlink="http://www.w3.org/1999/xlink" overflow="hidden"><defs><clipPath id="clip0"><rect x="218" y="206" width="844" height="308"/></clipPath><clipPath id="clip1"><rect x="218" y="206" width="844" height="308"/></clipPath><clipPath id="clip2"><rect x="218" y="206" width="844" height="308"/></clipPath><clipPath id="clip3"><rect x="218" y="206" width="844" height="308"/></clipPath></defs><g><rect x="0" y="0" width="1280" height="720" fill="#FFFFFF" fill-opacity="0"/><g clip-path="url(#clip0)"><g clip-path="url(#clip1)"><g clip-path="url(#clip2)"><g clip-path="url(#clip3)"><path d="M12.4078 64.9759C5.56031 64.9759 0 70.5296 0 77.3686L0 242.753 24.8003 242.753 24.8003 89.8036 126.809 89.8036 126.809 124.53C114.967 130.213 48.8232 161.926 48.8232 161.926 44.5286 163.998 41.7914 168.362 41.7914 173.134L41.7914 230.41C41.7914 237.258 47.3302 242.812 54.1685 242.812L151.514 242.812 151.514 217.987 66.5883 217.987 66.5883 180.942C78.4403 175.271 144.568 143.543 144.568 143.543 148.857 141.477 151.624 137.128 151.624 132.35L151.624 77.3686C151.624 70.5296 146.061 64.9759 139.192 64.9759L12.4078 64.9759Z" fill="#FFFFFF" transform="matrix(1 0 0 1.00161 218 206)"/><path d="M272.939 217.993 169.834 217.993 169.834 242.808 272.939 242.808 272.939 217.993Z" fill="#FFFFFF" transform="matrix(1 0 0 1.00161 218 206)"/><path d="M329.46 0 316.957 0 316.957 307.504 329.46 307.504 329.46 0Z" fill="#FFFFFF" transform="matrix(1 0 0 1.00161 218 206)"/><path d="M266.93 125.01C270.616 123.23 273.018 119.444 273.018 115.345L273.018 75.6865C273.018 69.7792 268.22 64.9823 262.309 64.9823L180.754 64.9823C174.828 64.9823 170.051 69.7766 170.051 75.6865L170.051 100.588 191.423 100.588 191.423 86.3818 251.628 86.3818 251.628 108.604 176.315 144.724C172.604 146.489 170.226 150.284 170.226 154.38L170.226 182.24C170.226 188.144 175.031 192.95 180.917 192.95L272.874 192.95 272.874 171.535 191.614 171.535 191.614 161.12 266.93 125.016 266.93 125.01Z" fill="#FFFFFF" transform="matrix(1 0 0 1.00161 218 206)"/><path d="M507.15 242.931 484.411 242.931 470.038 201.07 396.068 201.07 381.954 242.931 359.216 242.931 418.026 68.6833 448.347 68.6833 507.15 242.931ZM433.183 84.9044 402.079 181.445 464.287 181.445 433.183 84.9044Z" fill="#FFFFFF" transform="matrix(1 0 0 1.00161 218 206)"/><path d="M634.854 128.334 619.693 131.212C624.4 137.756 626.488 146.649 626.75 156.593L626.75 162.347C626.75 189.822 610.022 205.782 576.826 205.782 572.12 205.782 567.681 205.521 563.758 204.998 559.316 208.66 554.613 213.107 554.613 218.602 554.613 223.574 557.227 225.404 562.978 225.926 576.307 227.236 583.103 228.021 599.046 229.589 622.046 231.944 630.934 240.844 630.934 260.201 630.934 287.935 621.263 297.089 575.263 297.089 563.5 297.089 543.376 294.998 528.999 291.074L532.135 273.808C545.465 276.945 561.933 279.036 574.74 279.036 607.15 279.036 610.287 274.589 610.287 261.246 610.287 250.518 606.367 248.688 591.468 247.378 577.352 246.068 572.649 245.545 557.749 244.241 538.931 242.67 532.919 232.728 532.919 220.957 532.919 211.535 538.147 203.691 544.942 198.454 532.919 191.652 527.168 179.094 527.168 162.347L527.168 156.593C527.168 128.857 540.497 112.897 576.83 112.897 583.364 112.897 592.251 113.682 598.263 115.514L634.854 115.514 634.854 128.334ZM576.83 130.951C555.658 130.951 547.818 138.017 547.818 156.855L547.818 162.344C547.818 181.704 555.922 187.725 576.83 187.725 597.738 187.725 605.841 179.088 605.841 162.344L605.841 156.855C605.841 138.279 598.001 130.951 576.83 130.951Z" fill="#FFFFFF" transform="matrix(1 0 0 1.00161 218 206)"/><path d="M721.437 133.045C709.418 138.805 695.561 147.694 685.112 155.022L685.112 242.928 663.155 242.928 663.155 115.514 682.233 115.514 683.542 133.306C692.95 125.982 706.022 118.131 718.565 112.897L721.443 133.045 721.437 133.045Z" fill="#FFFFFF" transform="matrix(1 0 0 1.00161 218 206)"/><path d="M792.248 245.545C755.131 245.545 740.495 224.355 740.495 197.667L740.495 160.779C740.495 134.091 755.131 112.897 792.248 112.897 829.364 112.897 844 134.091 844 160.779L844 197.667C844 224.355 829.364 245.545 792.248 245.545ZM792.248 132C772.378 132 762.453 141.418 762.453 159.994L762.453 198.454C762.453 217.03 772.378 226.449 792.248 226.449 812.111 226.449 822.043 217.03 822.043 198.454L822.043 159.994C822.043 141.418 812.111 132 792.248 132Z" fill="#FFFFFF" transform="matrix(1 0 0 1.00161 218 206)"/></g></g></g></g></g></svg>